<?xml version="1.0" encoding="UTF-8" standalone="no"?>
<!-- Created with Inkscape (http://www.inkscape.org/) -->

<svg
   xmlns:svg="http://www.w3.org/2000/svg"
   xmlns="http://www.w3.org/2000/svg"
   xmlns:sodipodi="http://sodipodi.sourceforge.net/DTD/sodipodi-0.dtd"
   xmlns:inkscape="http://www.inkscape.org/namespaces/inkscape"
   width="12.584519mm"
   height="6.1691637mm"
   viewBox="0 0 12.584519 6.1691638"
   version="1.1"
   inkscape:version="0.92.2 5c3e80d, 2017-08-06">
  <g transform="translate(-11.850595,-14.968989)">
    <path
       d="m 11.850595,15.72203 v 5.01064 l 1.535052,0.188259 0.159299,-0.362038 h 1.201974 v -0.709602 c 0.637187,0.02896 0.709596,0.05793 1.419198,0.448933 0.622706,0.333078 1.057154,0.448928 1.766756,0.434448 h 0.738561 c 0.01448,0 0.05792,0 0.130334,0 0.188259,0.275148 0.477893,0.405483 0.897861,0.405483 1.042674,0 2.070869,-0.579262 2.070869,-1.173009 0,-0.202744 -0.08689,-0.376523 -0.362038,-0.695117 0.115854,-0.144814 0.130334,-0.217224 0.130334,-0.391003 0,-0.347558 -0.130334,-0.593747 -0.477892,-0.810971 0.0724,-0.159299 0.101369,-0.246188 0.101369,-0.333078 0,-0.173779 -0.07241,-0.304113 -0.260669,-0.521337 0.1593,0 0.275149,0 0.289634,0 l 1.477122,-0.08689 c 1.216454,-0.07241 1.766756,-0.318593 1.766756,-0.839936 0,-0.333073 -0.347558,-0.666151 -0.883375,-0.83993 -0.492378,-0.159299 -2.157764,-0.289634 -3.881075,-0.289634 -0.318594,0 -0.608227,0.01448 -1.08612,0.07241 -0.275148,-0.188264 -0.506857,-0.260669 -0.810971,-0.260669 -0.448927,0 -0.883375,0.159294 -1.549532,0.593747 -0.622712,0.391003 -0.91234,0.506853 -1.303343,0.506853 -0.02896,0 -0.101375,-0.01448 -0.173779,-0.01448 v -0.492373 z m 1.506087,0.333079 h 0.91234 v 3.939 h -0.767521 z m 1.390238,0.506857 c 0.492372,-0.01448 0.709596,-0.08689 1.100599,-0.333078 l 0.550302,-0.347558 c 0.477893,-0.304114 1.013715,-0.521338 1.303344,-0.521338 0.304118,0 0.637191,0.130335 0.854415,0.362038 l 1.028195,1.028195 c 0.173779,0.188264 0.289634,0.391003 0.289634,0.550302 0,0.217224 -0.289634,0.419968 -0.593747,0.419968 -0.217224,0 -0.521338,-0.115854 -0.724082,-0.289633 l -0.202738,-0.173779 -0.839936,-0.709597 -0.173779,0.202739 0.608227,0.782006 c -0.333079,0.376523 -0.810971,0.593747 -1.259899,0.593747 -0.188264,0 -0.463413,-0.04344 -0.796491,-0.115849 -0.04344,-0.01448 -0.101369,-0.02896 -0.188259,-0.04344 l -0.115854,0.217223 0.97027,0.333073 h 0.782006 c 0.217224,0.695122 0.318593,0.796491 0.839936,0.897861 0.02896,0.521337 0.144814,0.695116 0.521337,0.782011 v 0.188259 l -0.115855,0.01448 c -0.217224,0 -0.391003,0 -0.521337,0 -0.738561,0 -1.346793,-0.130334 -1.810201,-0.419968 L 15.688225,19.617591 C 15.470996,19.487257 15.210327,19.429332 14.74692,19.414847 Z m 4.329998,-0.98475 c 0.608232,-0.04344 0.854415,-0.05792 1.245424,-0.05792 0.550296,0 1.679866,0.05792 2.215683,0.101369 0.97027,0.08689 1.419198,0.289634 1.419198,0.622707 0,0.130334 -0.08689,0.260668 -0.217224,0.318598 -0.130334,0.04344 -0.304114,0.07241 -0.506858,0.10137 -1.057154,0.07241 -1.91157,0.101374 -2.592206,0.101374 -0.05792,0 -0.260669,0 -0.535823,-0.01448 z m 1.375758,1.766756 c 0.188259,0.130334 0.246183,0.217224 0.246183,0.347558 0,0.289634 -0.202738,0.463413 -0.91234,0.782006 -0.304113,0.130335 -0.825451,0.333079 -1.115084,0.434453 -0.217224,0.0724 -0.260669,0.0724 -0.376523,0.0724 -0.289629,0 -0.550303,-0.231704 -0.550303,-0.492373 0,-0.188264 0.130335,-0.405488 0.318599,-0.535822 0.115855,-0.08689 0.304113,-0.173779 0.376523,-0.173779 0.02896,0 0.08689,0.01448 0.159294,0.04344 0.217224,0.08689 0.434448,0.130335 0.651677,0.130335 0.434448,0 0.825451,-0.188259 1.115084,-0.506858 l 0.02896,-0.02896 0.01448,-0.02896 c 0,0 0.01448,-0.01448 0.02896,-0.02896 z m 0.275148,1.100605 c 0.173779,0 0.347559,0.188259 0.347559,0.362038 0,0.304113 -0.275149,0.608226 -0.680637,0.767526 -0.477893,0.202744 -1.07164,0.347558 -1.375753,0.347558 -0.217224,0 -0.405483,-0.173779 -0.405483,-0.362038 0,-0.202744 0.08689,-0.260669 0.477893,-0.376523 0.07241,-0.01448 0.231703,-0.08689 0.448927,-0.188259 l 0.825456,-0.405488 c 0.260669,-0.130335 0.304114,-0.144814 0.362038,-0.144814 z m 0.275149,1.173009 c 0.02896,0 0.07241,0.01448 0.101375,0.04344 0.101369,0.115854 0.173779,0.289634 0.173779,0.391003 0,0.115854 -0.202744,0.333078 -0.419968,0.448933 -0.362038,0.202738 -0.810971,0.318593 -1.173009,0.318593 -0.347558,0 -0.622712,-0.173779 -0.622712,-0.405483 0,-0.115854 0.04344,-0.144819 0.260668,-0.188264 l 0.506858,-0.130334 c 0.173779,-0.04344 0.304113,-0.07241 0.318593,-0.07241 l 0.362044,-0.173779 c 0.217223,-0.10137 0.376523,-0.173779 0.376523,-0.173779 0.05792,-0.04344 0.101369,-0.05793 0.115849,-0.05793 z"
       style="font-style:normal;font-variant:normal;font-weight:normal;font-stretch:normal;font-size:40px;line-height:125%;text-align:start;letter-spacing:0px;word-spacing:0px;writing-mode:lr-tb;text-anchor:start;fill:#000000;fill-opacity:1;stroke:none;stroke-width:0.36204031px;stroke-linecap:butt;stroke-linejoin:miter;stroke-opacity:1"
       inkscape:connector-curvature="0" />
  </g>
</svg>
